solid 
  facet normal 0.000000E+00 -1.000000E+00 0.000000E+00
    outer loop
      vertex -1.000000E+02 -1.000010E+02 2.001000E+00
      vertex -1.000000E+02 -1.000010E+02 0.000000E+00
      vertex -6.999900E+01 -1.000010E+02 0.000000E+00
    endloop
  endfacet
  facet normal 0.000000E+00 -1.000000E+00 0.000000E+00
    outer loop
      vertex -1.000000E+02 -1.000010E+02 2.001000E+00
      vertex -6.999900E+01 -1.000010E+02 0.000000E+00
      vertex -6.999900E+01 -1.000010E+02 2.001000E+00
    endloop
  endfacet
  facet normal 0.000000E+00 0.000000E+00 1.000000E+00
    outer loop
      vertex -6.999900E+01 -1.000010E+02 2.001000E+00
      vertex -8.000000E+01 -9.000100E+01 2.001000E+00
      vertex -1.000000E+02 -1.000010E+02 2.001000E+00
    endloop
  endfacet
  facet normal 0.000000E+00 0.000000E+00 1.000000E+00
    outer loop
      vertex -8.000000E+01 -9.000100E+01 2.001000E+00
      vertex -9.000000E+01 -9.000100E+01 2.001000E+00
      vertex -1.000000E+02 -1.000010E+02 2.001000E+00
    endloop
  endfacet
  facet normal -1.000000E+00 0.000000E+00 0.000000E+00
    outer loop
      vertex -1.000000E+02 -1.000010E+02 0.000000E+00
      vertex -1.000000E+02 -1.000010E+02 2.001000E+00
      vertex -1.000000E+02 -7.000000E+01 2.001000E+00
    endloop
  endfacet
  facet normal -1.000000E+00 0.000000E+00 0.000000E+00
    outer loop
      vertex -9.000000E+01 -8.000100E+01 1.300100E+01
      vertex -9.000000E+01 -8.000100E+01 2.001000E+00
      vertex -9.000000E+01 -9.000100E+01 2.001000E+00
    endloop
  endfacet
  facet normal -1.000000E+00 0.000000E+00 0.000000E+00
    outer loop
      vertex -9.000000E+01 -8.000100E+01 1.300100E+01
      vertex -9.000000E+01 -9.000100E+01 2.001000E+00
      vertex -9.000000E+01 -9.000100E+01 1.300100E+01
    endloop
  endfacet
  facet normal 0.000000E+00 -1.000000E+00 0.000000E+00
    outer loop
      vertex -9.000000E+01 -9.000100E+01 1.300100E+01
      vertex -9.000000E+01 -9.000100E+01 2.001000E+00
      vertex -8.000000E+01 -9.000100E+01 2.001000E+00
    endloop
  endfacet
  facet normal 0.000000E+00 -1.000000E+00 0.000000E+00
    outer loop
      vertex -9.000000E+01 -9.000100E+01 1.300100E+01
      vertex -8.000000E+01 -9.000100E+01 2.001000E+00
      vertex -8.000000E+01 -9.000100E+01 1.300100E+01
    endloop
  endfacet
  facet normal 0.000000E+00 1.000000E+00 0.000000E+00
    outer loop
      vertex -1.000000E+02 -7.000000E+01 0.000000E+00
      vertex -1.000000E+02 -7.000000E+01 2.001000E+00
      vertex -6.999900E+01 -7.000000E+01 2.001000E+00
    endloop
  endfacet
  facet normal 0.000000E+00 1.000000E+00 0.000000E+00
    outer loop
      vertex -1.000000E+02 -7.000000E+01 0.000000E+00
      vertex -6.999900E+01 -7.000000E+01 2.001000E+00
      vertex -6.999900E+01 -7.000000E+01 0.000000E+00
    endloop
  endfacet
  facet normal 0.000000E+00 0.000000E+00 1.000000E+00
    outer loop
      vertex -1.000000E+02 -7.000000E+01 2.001000E+00
      vertex -9.000000E+01 -8.000100E+01 2.001000E+00
      vertex -8.000000E+01 -8.000100E+01 2.001000E+00
    endloop
  endfacet
  facet normal 0.000000E+00 0.000000E+00 1.000000E+00
    outer loop
      vertex -1.000000E+02 -7.000000E+01 2.001000E+00
      vertex -8.000000E+01 -8.000100E+01 2.001000E+00
      vertex -6.999900E+01 -7.000000E+01 2.001000E+00
    endloop
  endfacet
  facet normal 0.000000E+00 1.000000E+00 0.000000E+00
    outer loop
      vertex -9.000000E+01 -8.000100E+01 2.001000E+00
      vertex -9.000000E+01 -8.000100E+01 1.300100E+01
      vertex -8.000000E+01 -8.000100E+01 1.300100E+01
    endloop
  endfacet
  facet normal 0.000000E+00 1.000000E+00 0.000000E+00
    outer loop
      vertex -9.000000E+01 -8.000100E+01 2.001000E+00
      vertex -8.000000E+01 -8.000100E+01 1.300100E+01
      vertex -8.000000E+01 -8.000100E+01 2.001000E+00
    endloop
  endfacet
  facet normal 0.000000E+00 0.000000E+00 -1.000000E+00
    outer loop
      vertex -1.000000E+02 -1.000010E+02 0.000000E+00
      vertex -1.000000E+02 -7.000000E+01 0.000000E+00
      vertex -6.999900E+01 -1.000010E+02 0.000000E+00
    endloop
  endfacet
  facet normal 0.000000E+00 0.000000E+00 -1.000000E+00
    outer loop
      vertex -6.999900E+01 -7.000000E+01 0.000000E+00
      vertex -6.999900E+01 -1.000010E+02 0.000000E+00
      vertex -1.000000E+02 -7.000000E+01 0.000000E+00
    endloop
  endfacet
  facet normal 1.000000E+00 0.000000E+00 0.000000E+00
    outer loop
      vertex -6.999900E+01 -7.000000E+01 2.001000E+00
      vertex -6.999900E+01 -1.000010E+02 0.000000E+00
      vertex -6.999900E+01 -7.000000E+01 0.000000E+00
    endloop
  endfacet
  facet normal -1.000000E+00 0.000000E+00 0.000000E+00
    outer loop
      vertex -1.000000E+02 -7.000000E+01 2.001000E+00
      vertex -1.000000E+02 -7.000000E+01 0.000000E+00
      vertex -1.000000E+02 -1.000010E+02 0.000000E+00
    endloop
  endfacet
  facet normal 1.000000E+00 0.000000E+00 0.000000E+00
    outer loop
      vertex -6.999900E+01 -1.000010E+02 0.000000E+00
      vertex -6.999900E+01 -7.000000E+01 2.001000E+00
      vertex -6.999900E+01 -1.000010E+02 2.001000E+00
    endloop
  endfacet
  facet normal 0.000000E+00 0.000000E+00 1.000000E+00
    outer loop
      vertex -8.000000E+01 -8.000100E+01 2.001000E+00
      vertex -8.000000E+01 -9.000100E+01 2.001000E+00
      vertex -6.999900E+01 -1.000010E+02 2.001000E+00
    endloop
  endfacet
  facet normal 0.000000E+00 0.000000E+00 1.000000E+00
    outer loop
      vertex -8.000000E+01 -8.000100E+01 2.001000E+00
      vertex -6.999900E+01 -1.000010E+02 2.001000E+00
      vertex -6.999900E+01 -7.000000E+01 2.001000E+00
    endloop
  endfacet
  facet normal 1.000000E+00 0.000000E+00 0.000000E+00
    outer loop
      vertex -8.000000E+01 -8.000100E+01 1.300100E+01
      vertex -8.000000E+01 -9.000100E+01 1.300100E+01
      vertex -8.000000E+01 -9.000100E+01 2.001000E+00
    endloop
  endfacet
  facet normal 1.000000E+00 0.000000E+00 0.000000E+00
    outer loop
      vertex -8.000000E+01 -8.000100E+01 1.300100E+01
      vertex -8.000000E+01 -9.000100E+01 2.001000E+00
      vertex -8.000000E+01 -8.000100E+01 2.001000E+00
    endloop
  endfacet
  facet normal 0.000000E+00 0.000000E+00 1.000000E+00
    outer loop
      vertex -9.000000E+01 -8.000100E+01 1.300100E+01
      vertex -9.000000E+01 -9.000100E+01 1.300100E+01
      vertex -8.000000E+01 -9.000100E+01 1.300100E+01
    endloop
  endfacet
  facet normal 0.000000E+00 0.000000E+00 1.000000E+00
    outer loop
      vertex -9.000000E+01 -8.000100E+01 1.300100E+01
      vertex -8.000000E+01 -9.000100E+01 1.300100E+01
      vertex -8.000000E+01 -8.000100E+01 1.300100E+01
    endloop
  endfacet
  facet normal 0.000000E+00 0.000000E+00 1.000000E+00
    outer loop
      vertex -9.000000E+01 -9.000100E+01 2.001000E+00
      vertex -9.000000E+01 -8.000100E+01 2.001000E+00
      vertex -1.000000E+02 -1.000010E+02 2.001000E+00
    endloop
  endfacet
  facet normal 0.000000E+00 0.000000E+00 1.000000E+00
    outer loop
      vertex -1.000000E+02 -7.000000E+01 2.001000E+00
      vertex -1.000000E+02 -1.000010E+02 2.001000E+00
      vertex -9.000000E+01 -8.000100E+01 2.001000E+00
    endloop
  endfacet
endsolid 
